<svg xmlns="http://www.w3.org/2000/svg" xmlns:svg="http://www.w3.org/2000/svg" xmlns:xlink="http://www.w3.org/1999/xlink" id="svg2014" width="200" height="200" version="1.1" viewBox="0 0 52.917 52.917"><defs id="defs2008"><linearGradient id="linearGradient8697" x1="222.206" x2="26.67" y1="74.308" y2="76.313" gradientTransform="matrix(0.23189531,0,0,0.24870607,34.415688,49.283754)" gradientUnits="userSpaceOnUse" xlink:href="#linearGradient4689"/><linearGradient id="linearGradient4689"><stop id="stop4691" offset="0" style="stop-color:#366a96;stop-opacity:1"/><stop id="stop4693" offset="1" style="stop-color:#3679b0;stop-opacity:1"/></linearGradient><linearGradient id="linearGradient4671"><stop id="stop4673" offset="0" style="stop-color:#ffc836;stop-opacity:1"/><stop id="stop4675" offset="1" style="stop-color:#ffe873;stop-opacity:1"/></linearGradient></defs><metadata id="metadata2011"/><g id="layer5" transform="translate(-39.497524,-53.226519)"><path id="path7992" d="M 83.43425,104.07897 C 77.36172,103.64274 49.522588,107.68458 47.711594,102.9076 40.154025,94.926168 75.537033,76.974315 74.064907,76.90299 50.949885,77.137172 42.267706,81.528267 46.580917,69.2124 l 33.857456,-1.462535 c 3.213739,-0.138823 4.730426,2.563009 5.524285,5.959871 -1.344545,16.427047 -8.681273,13.404254 -17.73318,20.060168 l 6.684601,-0.684006 c 17.426902,0.904876 18.350147,10.223862 8.520171,10.993072 z" style="fill:#222b00;fill-opacity:1;stroke-width:.24015366"/><path id="path7990" d="m 42.979653,57.445878 c 2.133124,-2.499054 10.294486,-1.687334 14.971716,-2.565075 3.175446,-0.596865 7.247052,-0.671474 11.044488,0 2.999484,0.531032 6.840895,3.364273 7.362645,6.50302 l 1.050489,6.319537 C 64.222864,79.166824 43.46774,103.30904 43.73271,97.619525 38.244175,89.84645 40.257762,90.229147 46.74464,82.926723 51.554752,76.913056 56.584836,70.425409 63.475659,66.95415 v 0 L 43.954694,67.760133 C 40.760468,64.95488 40.887622,59.896789 42.979653,57.445878 Z" style="fill:url(#linearGradient8697);fill-opacity:1;stroke-width:.24015366"/><path id="path7994" d="m 47.47376,61.841654 c 0,-1.237616 0.924808,-2.238242 2.070586,-2.238242 1.141686,0 2.070584,1.000626 2.070584,2.238242 0,1.23323 -0.928898,2.233856 -2.070584,2.233856 -1.145778,0 -2.070586,-1.000626 -2.070586,-2.233856 z" style="fill:#fff;stroke-width:.24015366"/><path id="path7996" d="m 77.30857,98.033771 c 0,-1.233229 0.928897,-2.233855 2.070589,-2.233855 1.145777,0 2.070581,1.000626 2.070581,2.233855 0,1.237612 -0.924804,2.238239 -2.070581,2.238239 -1.141692,0 -2.070589,-1.000627 -2.070589,-2.238239 z" style="fill:#fff;stroke-width:.24015366"/></g></svg>